<?xml version="1.0" encoding="UTF-8"?>
<svg width="148" height="200" version="1.1" viewbox="0 0 148 200" xmlns="http://www.w3.org/2000/svg" xmlns:xlink="http://www.w3.org/1999/xlink">
	<defs>
		<polygon id="base_square" points="-24,0 0,-12 24,0 0,12"/>
		<g id="base">
			<polygon points="-73,0 0,-37 73,0 0,37" fill="#46617E" stroke="none" transform="translate(0 8)"/>
			<use xlink:href="#base_square" x="-49"/>
			<use xlink:href="#base_square" x="-24.5" y="-12.25"/>
			<use xlink:href="#base_square" y="-24.5"/>
			<use xlink:href="#base_square" x="-24.5" y="12.25" />
			<use xlink:href="#base_square"/>
			<use xlink:href="#base_square" x="24.5"  y="-12.25"/>
			<use xlink:href="#base_square" y="24.5"/>
			<use xlink:href="#base_square" x="24.5"  y="12.25"/>
			<use xlink:href="#base_square" x="49"/>
		</g>
		<g id="s">
			<circle r="20"/>
			<ellipse rx="17.88" ry="20"/>
			<ellipse rx="20" ry="8.94"/>
			<ellipse rx="17.32" ry="7.74" cy="-8.94"/>
			<ellipse rx="17.32" ry="7.74" cy="8.94"/>
			<ellipse rx="10" ry="4.47" cy="-15.49"/>
			<ellipse rx="10" ry="4.47" cy="15.49"/>
			<ellipse rx="4.71" ry="19.98" transform="rotate(7.4)"/>
			<ellipse rx="4.71" ry="19.98" transform="rotate(-7.4)"/>
			<ellipse rx="12.73" ry="19.95" transform="rotate(20.8)"/>
			<ellipse rx="12.73" ry="19.95" transform="rotate(-20.8)"/>
		</g>
		<g id="car" fill="none" stroke="white" stroke-width="0.75">
			<use href="#s" y="-47"/>
			<g stroke-width="1.7">
				<use href="#s" transform="translate(-27.5 -18.5) scale(.475 .475)"/>
				<use href="#s" transform="translate(35.3 -32.5) scale(.475 .475)"/>
				<use href="#s" transform="translate(-34 -60) scale(.45 .45)"/>
				<use href="#s" transform="translate(20 -75) scale(.45 .45)"/>
			</g>
			<ellipse rx="6" ry="3"/>
			<path d="M-6 0 L0 -92 M-3.9 2.3 L0 -92 M0 3 L0 -92 M3.9 2.3 L0 -92 M6 0 L0 -92 M-2.3 -2.5 L0 -92 M2.3 -2.5 L0 -92"/>
		</g>
	</defs>
	<rect width="100%" height="100%" fill="#6B839E"/>
	<use xlink:href="#base" x="74" y="154" fill="#788FA8" alt-fill="#91BBE6" stroke="white"/>
	<use xlink:href="#car" x="74" y="154"/>
</svg>
