<?xml version="1.0" encoding="UTF-8"?>
<svg width="148" height="200" version="1.1" viewbox="0 0 148 200" xmlns="http://www.w3.org/2000/svg" xmlns:xlink="http://www.w3.org/1999/xlink">
	<defs>
		<polygon id="base_square" points="-24,0 0,-12 24,0 0,12"/>
		<g id="base">
			<polygon points="-73,0 0,-37 73,0 0,37" fill="#46617E" stroke="none" transform="translate(0 8)"/>
			<use xlink:href="#base_square" x="-49"/>
			<use xlink:href="#base_square" x="-24.5" y="-12.25"/>
			<use xlink:href="#base_square" y="-24.5"/>
			<use xlink:href="#base_square" x="-24.5" y="12.25" />
			<use xlink:href="#base_square"/>
			<use xlink:href="#base_square" x="24.5"  y="-12.25"/>
			<use xlink:href="#base_square" y="24.5"/>
			<use xlink:href="#base_square" x="24.5"  y="12.25"/>
			<use xlink:href="#base_square" x="49"/>
		</g>
		<radialGradient id="s" cx="46%" cy="46%" fx="34%" fy="34%">
			<stop offset="10%" stop-color="#A9E5F7"/>
			<stop offset="40%" stop-color="#7EBDF3"/>
			<stop offset="80%" stop-color="#4C78AD"/>
			<stop offset="100%" stop-color="#274870"/>
		</radialGradient>
		<linearGradient id="c">
			<stop offset="0%" stop-color="#4672A5"/>
			<stop offset="20%" stop-color="#689CD2"/>
			<stop offset="30%" stop-color="#689CD2"/>
			<stop offset="100%" stop-color="#13355B"/>
		</linearGradient>
		<radialGradient id="t1" cx="-13.1%" cy="60.1%" r="100" fx="17%" fy="49%" fr="48" gradientUnits="userSpaceOnUse" gradientTransform="translate(-74 -154)">
			<stop offset="0%" stop-color="#A9E5F7"/>
			<stop offset="25%" stop-color="#7EBDF3"/>
			<stop offset="40%" stop-color="#689CD2"/>
			<stop offset="60%" stop-color="#4C78AD"/>
			<stop offset="100%" stop-color="#274870"/>
		</radialGradient>
		<radialGradient id="t2" cx="99.5%" cy="58%" r="80" fx="83%" fy="50%" fr="50" gradientUnits="userSpaceOnUse" gradientTransform="translate(-74 -154)">
			<stop offset="0%" stop-color="#3C689700"/>
			<stop offset="30%" stop-color="#3C689722"/>
			<stop offset="70%" stop-color="#3C689799"/>
			<stop offset="100%" stop-color="#3C6897"/>
		</radialGradient>
		<radialGradient id="b1" cx="7.5%" cy="56%" r="70" fx="21%" fy="50%" fr="45" gradientUnits="userSpaceOnUse" gradientTransform="translate(-74 -154)">
			<stop offset="0%" stop-color="#A9E5F7"/>
			<stop offset="50%" stop-color="#7EBDF3"/>
			<stop offset="65%" stop-color="#689CD2"/>
			<stop offset="80%" stop-color="#4C78AD"/>
			<stop offset="100%" stop-color="#274870"/>
		</radialGradient>
		<radialGradient id="b2" cx="92.5%" cy="56%" r="70" fx="79%" fy="50%" fr="45" gradientUnits="userSpaceOnUse" gradientTransform="translate(-74 -154)">
			<stop offset="0%" stop-color="#27487000"/>
			<stop offset="75%" stop-color="#27487011"/>
			<stop offset="87%" stop-color="#27487055"/>
			<stop offset="100%" stop-color="#274870BB"/>
		</radialGradient>
		<g id="drdonut">
			<path fill="url(#s)" d="M1 0 A1 1 0 0 0 -1 0 A1 0.5 0 0 0 1 0"/>
 			<path fill="url(#c)" d="M14.8 -2.5 A14.8 7.4 0 0 0 -14.8 -2.5 v2.5 A14.8 7.4 0 0 1 14.8 0" transform="scale(-1 1)"/>
			<path fill="url(#c)" d="M17.88 0 v-2.5 A17.88 8.94 0 0 1 -17.88 -2.5 v2.5 A17.88 8.94 0 0 0 17.88 0 z"/>
			<path fill="#4875AA" d="M14.8 -2.5 A14.8 7.4 0 0 0 -14.8 -2.5 A14.8 7.4 0 0 0 14.8 -2.5 L17.88 -2.5
				A17.88 8.94 0 0 1 -17.88 -2.5 A17.88 8.94 0 0 1 17.88 -2.5 z"/>
			<g fill="url(#b1)">
				<path id="bottom" d="M0 -11 a70 70 0 0 0 6 -17.6 h-12 a70 70 0 0 0 6 17.6 "/>
			</g>
			<use href="#bottom" fill="url(#b2)" />
			<circle fill="url(#s)" r="12" cy="-39"/>
			<g fill="url(#t1)">
				<path id="top" d="M0 -68.9 a70 70 0 0 1 6 21 a6 2 0 0 1 -12 0 a70 70 0 0 1 6 -21"/>
			</g>
			<use href="#top" fill="url(#t2)" />
		</g>
	</defs>
	<rect width="100%" height="100%" fill="#6B839E"/>
	<use xlink:href="#base" x="74" y="154" alt-fill="#788FA8" fill="#91BBE6"/>
	<use xlink:href="#drdonut" x="74" y="154" />
</svg>
