<?xml version="1.0" encoding="UTF-8"?>
<svg width="148" height="200" version="1.1" viewbox="0 0 148 200" xmlns="http://www.w3.org/2000/svg" xmlns:xlink="http://www.w3.org/1999/xlink">
	<defs>
		<polygon id="base_square" points="-24,0 0,-12 24,0 0,12"/>
		<g id="base">
			<polygon points="-73,0 0,-37 73,0 0,37" fill="#46617E" stroke="none" transform="translate(0 8)"/>
			<use xlink:href="#base_square" x="-49"/>
			<use xlink:href="#base_square" x="-24.5" y="-12.25"/>
			<use xlink:href="#base_square" y="-24.5"/>
			<use xlink:href="#base_square" x="-24.5" y="12.25" />
			<use xlink:href="#base_square"/>
			<use xlink:href="#base_square" x="24.5"  y="-12.25"/>
			<use xlink:href="#base_square" y="24.5"/>
			<use xlink:href="#base_square" x="24.5"  y="12.25"/>
			<use xlink:href="#base_square" x="49"/>
		</g>
		<g id="s">
			<circle r="20"/>
			<ellipse rx="17.88" ry="20"/>
			<ellipse rx="20" ry="8.94"/>
			<ellipse rx="17.32" ry="7.74" cy="-8.94"/>
			<ellipse rx="17.32" ry="7.74" cy="8.94"/>
			<ellipse rx="10" ry="4.47" cy="-15.49"/>
			<ellipse rx="10" ry="4.47" cy="15.49"/>
			<ellipse rx="4.71" ry="19.98" transform="rotate(7.4)"/>
			<ellipse rx="4.71" ry="19.98" transform="rotate(-7.4)"/>
			<ellipse rx="12.73" ry="19.95" transform="rotate(20.8)"/>
			<ellipse rx="12.73" ry="19.95" transform="rotate(-20.8)"/>
		</g>
		<g id="drdonut">
			<g fill="none" stroke="#FFF" stroke-width="0.75">
				<path d="M1 0A1 1 0 0 0 -1 0A1 0.5 0 0 0 1 0" />
				<ellipse cy="-2.5" rx="14.8" ry="7.5" />
				<ellipse rx="14.8" ry="7.5" />
				<ellipse cy="-2.5" rx="17.88" ry="8.94" />
				<ellipse rx="17.88" ry="8.94" />
				<path d="M-17.88 0V-2.5M-14.8 0V-2.5M14.8 0V-2.5M17.88 0V-2.5" />
				<use href="#s" transform="translate(0 -39) scale(0.6 0.6)" stroke-width="1.25" />
				<path d="M0 -68.9A70 70 0 0 0 0 -11A70 70 0 0 0 0 -68.9zA140 140 0 0 0 0 -11m0 0A140 140 0 0 0 0 -68.9z" />
				<ellipse cy="-17.5" rx="2.5" ry="1.11" />
				<ellipse cy="-24" rx="4.4" ry="1.96" />
				<ellipse cy="-62.5" rx="2.5" ry="1.11" />
				<ellipse cy="-55.7" rx="4.4" ry="1.96" />
			</g>
		</g>
	</defs>
	<rect width="100%" height="100%" fill="#6B839E"/>
	<use xlink:href="#base" x="74" y="154" alt-fill="#788FA8" fill="#91BBE6"/>
	<use xlink:href="#drdonut" x="74" y="154" />
</svg>
