<?xml version="1.0" encoding="UTF-8"?>
<svg width="148" height="200" version="1.1" viewbox="0 0 148 200" xmlns="http://www.w3.org/2000/svg">
	<defs>
		<polygon id="base_square" points="-24,0 0,-12 24,0 0,12"/>
		<g id="base">
			<polygon points="-73,0 0,-37 73,0 0,37" fill="#46617E" stroke="none" transform="translate(0 8)"/>
			<use href="#base_square" x="-49"/>
			<use href="#base_square" x="-24.5" y="-12.25"/>
			<use href="#base_square" y="-24.5"/>
			<use href="#base_square" x="-24.5" y="12.25" />
			<use href="#base_square"/>
			<use href="#base_square" x="24.5" y="-12.25"/>
			<use href="#base_square" y="24.5"/>
			<use href="#base_square" x="24.5" y="12.25"/>
			<use href="#base_square" x="49"/>
		</g>
		<g id="final">
 			<path id="basic" d="M0 5 l10 -5 v-3.5 l-10 -5 l-10 5 v3.5 z
				 v-3.5 l10 -5 m0 3.5 l-10 -5 m0 -3.5 v3.5 l-10 5 m0 -3.5 l10 5"/>
			 <use href="#basic" y="-5"/>
			 <use href="#basic" y="-10"/>
			 <use href="#basic" y="-15"/>
			 <path d="M13 -8.5 l10 -5 v-3.5 l-23 -11.5 l-10 5 v3.5 z
				 v-3.5 l10 -5 m0 3.5 l-23 -11.5 m0 -3.5 v3.5 l-10 5 m0 -3.5 l23 11.5"/>
 			<path d="M0 -20 l24 -12 v-3.5 l-10 -5 l-24 12 v3.5 z
			 v-3.5 l24 -12 m0 3.5 l-10 -5 m0 -3.5 v3.5 l-24 12 m0 -3.5 l10 5"/>
 			<path d="M-27 -11.5 l37 -18.5 v-3.5 l-10 -5 l-37 18.5 v3.5 z
			 v-3.5 l37 -18.5 m0 3.5 l-10 -5 m0 -3.5 v3.5 l-37 18.5 m0 -3.5 l10 5"/>
 			<path d="M0 -30 l65 -32.5 v-3.5 l-10 -5 l-65 32.5 v3.5 z
			 v-3.5 l65 -32.5 m0 3.5 l-10 -5 m0 -3.5 v3.5 l-65 32.5 m0 -3.5 l10 5"/>
 			<path d="M36 -17 l10 -5 v-3.5 l-46 -23 l-10 5 v3.5 z
			 v-3.5 l10 -5 m0 3.5 l-46 -23 m0 -3.5 v3.5 l-10 5 m0 -3.5 l46 23"/>
 			<path d="M0 -40 l10 -5 v-3.5 l-54 -27 l-10 5 v3.5 z
				 v-3.5 l10 -5 m0 3.5 l-54 -27 m0 -3.5 v3.5 l-10 5 m0 -3.5 l54 27"/>
 			<path d="M-53 -18.5 l63 -31.5 v-3.5 l-10 -5 l-63 31.5 v3.5 z
				 v-3.5 l63 -31.5 m0 3.5 l-10 -5 m0 -3.5 v3.5 l-63 31.5 m0 -3.5 l10 5"/>
			<path d="M14 -43 l10 -5 v-3.5 l-24 -12 l-10 5 v3.5 z
				 v-3.5 l10 -5 m0 3.5 l-24 -12 m0 -3.5 v3.5 l-10 5 m0 -3.5 l24 12"/>
			<path d="M0 -55 l10 -5 v-3.5 l-23 -11.5 l-10 5 v3.5 z
				 v-3.5 l10 -5 m0 3.5 l-23 -11.5 m0 -3.5 v3.5 l-10 5 m0 -3.5 l23 11.5"/>
			<path d="M0 -60 l27 -13.5 v-3.5 l-10 -5 l-27 13.5 v3.5 z
				 v-3.5 l27 -13.5 m0 3.5 l-10 -5 m0 -3.5 v3.5 l-27 13.5 m0 -3.5 l10 5"/>
			<use href="#basic" y="-70"/>
			<use href="#basic" y="-75"/>
			<use href="#basic" y="-80"/>
			<use href="#basic" y="-85"/>
		</g>
	</defs>
	<rect width="100%" height="100%" fill="#556D88"/>
	<!-- <use href="#base" x="74" y="154" fill="#788FA8" alt-fill="#91BBE6" stroke="white"/> -->
	<use href="#final" x="74" y="154" fill="none" stroke="white" stroke-width="0.75"/>	
</svg>
