<?xml version="1.0" encoding="UTF-8"?>
<svg width="148" height="200" version="1.1" viewbox="0 0 148 200" xmlns="http://www.w3.org/2000/svg">
	<defs>
		<polygon id="base_square" points="-24,0 0,-12 24,0 0,12"/>
		<g id="base">
			<polygon points="-73,0 0,-37 73,0 0,37" fill="#46617E" stroke="none" transform="translate(0 8)"/>
			<use href="#base_square" x="-49"/>
			<use href="#base_square" x="-24.5" y="-12.25"/>
			<use href="#base_square" y="-24.5"/>
			<use href="#base_square" x="-24.5" y="12.25" />
			<use href="#base_square"/>
			<use href="#base_square" x="24.5"  y="-12.25"/>
			<use href="#base_square" y="24.5"/>
			<use href="#base_square" x="24.5"  y="12.25"/>
			<use href="#base_square" x="49"/>
		</g>
		<radialGradient id="4" gradientUnits="userSpaceOnUse" r="90" cx="-10" cy="-40">
			<stop offset="0%" stop-color="#4974B4"></stop>
			<stop offset="100%" stop-color="#052947"></stop> 
		</radialGradient>
		<radialGradient id="3" gradientUnits="userSpaceOnUse" r="70" cx="-12" cy="-48">
			<stop offset="10%" stop-color="#68A0DD"></stop>
			<stop offset="100%" stop-color="#4274A5"></stop> 
		</radialGradient>
		<radialGradient id="2" gradientUnits="userSpaceOnUse" r="90" cx="-10" cy="-40">
			<stop offset="10%" stop-color="#7BBCFD"></stop>
			<stop offset="100%" stop-color="#3C6897"></stop> 
		</radialGradient>
		<radialGradient id="1" gradientUnits="userSpaceOnUse" r="48" cx="-17" cy="-44">
			<stop offset="10%" stop-color="#8FD6FE"></stop>
			<stop offset="100%" stop-color="#76A8EB"></stop> 
		</radialGradient>
		<g id="final">
			<path fill="url(#2)" d="M0 1.5 l10 -5 l-10 -5 l-10 5 z"/>
			<path fill="url(#1)" d="M0 -3.5 l10 -5 l-10 -5 l-10 5 z
				M0 -8.5 l10 -5 l-10 -5 l-10 5 z"/>
			<path fill="url(#2)" d="M0 -13.5 l10 -5 l-10 -5 l-10 5 z"/>
			<path fill="url(#4)" d="M0 1.5 v3.5 l10 -5 v-3.5 z
				M0 -3.5 v3.5 l10 -5 v-3.5 z
				M0 -8.5 v3.5 l10 -5 v-3.5 z
				M0 -13.5 v3.5 l10 -5 v-3.5 z
				M13 -12 v3.5 l10 -5 v-3.5 z"/>
			<path fill="url(#3)" d="M0 1.5 v3.5 l-10 -5 v-3.5 z
				M0 -3.5 v3.5 l-10 -5 v-3.5 z
				M0 -8.5 v3.5 l-10 -5 v-3.5 z
				M0 -13.5 v3.5 l-10 -5 v-3.5 z
				M13 -12 v3.5 l-23 -11.5 v-3.5 z"/>
			<path fill="url(#1)" d="M13 -12 l10 -5 l-23 -11.5 l-10 5 z"/>
			<path fill="url(#3)" d="M0 -23.5 v3.5 l-10 -5 v-3.5 z"/>
			<path fill="url(#4)" d="M0 -23.5 v3.5 l24 -12 v-3.5 z"/>
			<path fill="url(#3)" d="M-27 -15 v3.5 l-10 -5 v-3.5 z"/>
			<path fill="url(#2)" d="M0 -23.5 l24 -12 l-10 -5 l-25 12 z"/>
			<path fill="url(#4)" d="M-27 -15 v3.5 l37 -18.5 v-3.5 z"/>
			<path fill="url(#2)" d="M-27 -15 l37 -18.5 l-10 -5 l-37 18.5 z"/>
			<path fill="url(#3)" d="M0 -33.5 v3.5 l-10 -5 v-3.5 z"/>
			<path fill="url(#4)" d="M0 -33.5 v3.5 l65 -32.5 v-3.5 z"/>
			<path fill="url(#2)" d="M0 -33.5 l65 -32.5 l-10 -5 l-65 32.5 z"/>
			<path fill="url(#1)" d="M36 -20.5 l10 -5 l-46 -23 l-10 5 z"/>
			<path fill="url(#3)" d="M36 -20.5 v3.5 l-46 -23 v-3.5 z
				M0 -43.5 v3.5 l-54 -27 v-3.5 z"/>
			<path fill="url(#1)" d="M0 -43.5 l10 -5 l-54 -27 l-10 5 z"/>
		2	<path fill="url(#2)" d="M-53 -22 l63 -31.5 l-10 -5 l-63 31.5 z"/>
			<path fill="url(#4)" d="M36 -20.5 v3.5 l10 -5 v-3.5 z
				M0 -43.5 v3.5 l10 -5 v-3.5 z
				M-53 -22 v3.5 l63 -31.5 v-3.5 z"/>
			<path fill="url(#2)" d="M14 -46.5 l10 -5 l-24 -12 l-10 5 z"/>
			<path fill="url(#1)" d="M0 -58.5 l10 -5 l-23 -11.5 l-10 5 z"/>
			<path fill="url(#2)" d="M0 -63.5 l27 -13.5 l-10 -5 l-27 13.5 z"/>
			<path fill="url(#1)" d="M0 -68.5 l10 -5 l-10 -5 l-10 5 z
				M0 -73.5 l10 -5 l-10 -5 l-10 5 z
				M0 -78.5 l10 -5 l-10 -5 l-10 5 z
				M0 -83.5 l10 -5 l-10 -5 l-10 5 z"/>
			<path fill="url(#3)" d="M-53 -22 v3.5 l-10 -5 v-3.5 z
				M14 -46.5 v3.5 l-24 -12 v-3.5 z
				M0 -58.5 v3.5 l-23 -11.5 v-3.5 z
				M0 -63.5 v3.5 l-10 -5 v-3.5 z
				M0 -68.5 v3.5 l-10 -5 v-3.5 z
				M0 -73.5 v3.5 l-10 -5 v-3.5 z
				M0 -78.5 v3.5 l-10 -5 v-3.5 z
				M0 -83.5 v3.5 l-10 -5 v-3.5 z"/>
			<path fill="url(#4)" d="M14 -46.5 v3.5 l10 -5 v-3.5 z
				M0 -58.5 v3.5 l10 -5 v-3.5 z
				M0 -63.5 v3.5 l27 -13.5 v-3.5 z
				M0 -68.5 v3.5 l10 -5 v-3.5 z
				M0 -73.5 v3.5 l10 -5 v-3.5 z
				M0 -78.5 v3.5 l10 -5 v-3.5 z
				M0 -83.5 v3.5 l10 -5 v-3.5 z"/>
		</g>
	</defs>
	<rect width="100%" height="100%" fill="#556D88"/>
	<use href="#base" x="74" y="154" alt-fill="#788FA8" fill="#91BBE6"/>
	<use href="#final" x="74" y="154"/>
</svg>
