<?xml version="1.0" encoding="UTF-8"?>
<svg width="148" height="200" version="1.1" viewbox="0 0 148 200" xmlns="http://www.w3.org/2000/svg">
	<defs>
		<polygon id="base_square" points="-24,0 0,-12 24,0 0,12"/>
		<g id="base">
			<polygon points="-73,0 0,-37 73,0 0,37" fill="#46617E" stroke="none" transform="translate(0 8)"/>
			<use href="#base_square" x="-49"/>
			<use href="#base_square" x="-24.5" y="-12.25"/>
			<use href="#base_square" y="-24.5"/>
			<use href="#base_square" x="-24.5" y="12.25" />
			<use href="#base_square"/>
			<use href="#base_square" x="24.5"  y="-12.25"/>
			<use href="#base_square" y="24.5"/>
			<use href="#base_square" x="24.5"  y="12.25"/>
			<use href="#base_square" x="49"/>
		</g>
		<radialGradient id="dark_grad" gradientUnits="userSpaceOnUse" r="32" cx="0" cy="-36">
			<stop offset="0%" stop-color="#4974B4"></stop>
			<stop offset="100%" stop-color="#23406B"></stop> 
		</radialGradient>
		<radialGradient id="med_grad" gradientUnits="userSpaceOnUse" r="32" cx="-12" cy="-36">
			<stop offset="0%" stop-color="#84C7F9"></stop>
			<stop offset="100%" stop-color="#4E7BC0"></stop> 
		</radialGradient>
		<radialGradient id="lite_grad" gradientUnits="userSpaceOnUse" r="32" cx="-10" cy="-20">
			<stop offset="10%" stop-color="#D2FDFD"></stop>
			<stop offset="100%" stop-color="#76A8EB"></stop> 
		</radialGradient>
		<g id="ped">
			<path fill="url(#med_grad)" d="
				M0 -20 l-4.5 -2.25 v-15 l4.5 2.25 z"/>
			<path fill="url(#dark_grad)" d="
				M-6 -17 l4.5 -2.25 v-15 l-4.5 2.25 z
				M0 -20 l4.5 -2.25 v-15 l-4.5 2.25 z"/>
			<path fill="url(#med_grad)" d=" 
				M0 -14 l-4.5 -2.25 v-15 l4.5 2.25 z
				M-6 -17 l-4.5 -2.25 v-15 l4.5 2.25 z
				M6 -17 l-4.5 -2.25 v-15 l4.5 2.25 z"/>
			<path fill="url(#dark_grad)" d="
				M-8 -10 l4.5 -2.25 v-15 l-4.5 2.25 z
				M-14 -13 l4.5 -2.25 v-15 l-4.5 2.25 z
				M0 -14 l4.5 -2.25 v-15 l-4.5 2.25 z
				M6 -17 l4.5 -2.25 v-15 l-4.5 2.25 z"/>
			<path fill="url(#med_grad)" d="
				M0 -6 l-4.5 -2.25 v-15 l4.5 2.25 z
				M-8 -10 l-4.5 -2.25 v-15 l4.5 2.25 z
				M-14 -13 l-4.5 -2.25 v-15 l4.5 2.25 z
				M8 -10 l-4.5 -2.25 v-15 l4.5 2.25 z
				M14 -13 l-4.5 -2.25 v-15 l4.5 2.25 z"/>
			<path fill="url(#dark_grad)" d="
				M-6 -3 l4.5 -2.25 v-15 l-4.5 2.25 z
				M-14 -7 l4.5 -2.25 v-15 l-4.5 2.25 z
				M-20 -10 l4.5 -2.25 v-15 l-4.5 2.25 z
				M0 -6 l4.5 -2.25 v-15 l-4.5 2.25 z
				M8 -10 l4.5 -2.25 v-15 l-4.5 2.25 z
				M14 -13 l4.5 -2.25 v-15 l-4.5 2.25 z"/>
			<path fill="url(#med_grad)" d="
				M0 0 l-4.5 -2.25 v-15 l4.5 2.25 z
				M-6 -3 l-4.5 -2.25 v-15 l4.5 2.25 z
				M-14 -7 l-4.5 -2.25 v-15 l4.5 2.25 z
				M-20 -10 l-4.5 -2.25 v-15 l4.5 2.25 z
				M6 -3 l-4.5 -2.25 v-15 l4.5 2.25 z
				M14 -7 l-4.5 -2.25 v-15 l4.5 2.25 z
				M20 -10 l-4.5 -2.25 v-15 l4.5 2.25 z"/>
			<path fill="url(#dark_grad)" d="
				M0 0 l4.5 -2.25 v-15 l-4.5 2.25 z
				M6 -3 l4.5 -2.25 v-15 l-4.5 2.25 z
				M14 -7 l4.5 -2.25 v-15 l-4.5 2.25 z
				M20 -10 l4.5 -2.25 v-15 l-4.5 2.25 z"/>
			<path fill="url(#lite_grad)" transform="translate(0 -15)" d="
				M0 0 l4.5 -2.25 l-4.5 -2.25 l-4.5 2.25 z
				M6 -3 l4.5 -2.25 l-4.5 -2.25 l-4.5 2.25 z
				M14 -7 l4.5 -2.25 l-4.5 -2.25 l-4.5 2.25 z
				M20 -10 l4.5 -2.25 l-4.5 -2.25 l-4.5 2.25 z
				M-6 -3 l4.5 -2.25 l-4.5 -2.25 l-4.5 2.25 z
				M0 -6 l4.5 -2.25 l-4.5 -2.25 l-4.5 2.25 z
				M8 -10 l4.5 -2.25 l-4.5 -2.25 l-4.5 2.25 z
				M14 -13 l4.5 -2.25 l-4.5 -2.25 l-4.5 2.25 z
				M-14 -7 l4.5 -2.25 l-4.5 -2.25 l-4.5 2.25 z
				M-8 -10 l4.5 -2.25 l-4.5 -2.25 l-4.5 2.25 z
				M0 -14 l4.5 -2.25 l-4.5 -2.25 l-4.5 2.25 z
				M6 -17 l4.5 -2.25 l-4.5 -2.25 l-4.5 2.25 z
				M-20 -10 l4.5 -2.25 l-4.5 -2.25 l-4.5 2.25 z
				M-14 -13 l4.5 -2.25 l-4.5 -2.25 l-4.5 2.25 z
				M-6 -17 l4.5 -2.25 l-4.5 -2.25 l-4.5 2.25 z
				M0 -20 l4.5 -2.25 l-4.5 -2.25 l-4.5 2.25 z"/>

			<path fill="url(#med_grad)" d="
				M0 -41.5 l-4.5 -2.25 v-15 l4.5 2.25 z"/>
			<path fill="url(#dark_grad)" d="
				M-6 -38.5 l4.5 -2.25 v-15 l-4.5 2.25 z
				M0 -41.5 l4.5 -2.25 v-15 l-4.5 2.25 z"/>
			<path fill="url(#med_grad)" d=" 
				M0 -35.5 l-4.5 -2.25 v-15 l4.5 2.25 z
				M-6 -38.5 l-4.5 -2.25 v-15 l4.5 2.25 z
				M6 -38.5 l-4.5 -2.25 v-15 l4.5 2.25 z"/>
			<path fill="url(#dark_grad)" d="
				M-8 -31.5 l4.5 -2.25 v-15 l-4.5 2.25 z
				M-14 -34.5 l4.5 -2.25 v-15 l-4.5 2.25 z
				M0 -35.5 l4.5 -2.25 v-15 l-4.5 2.25 z
				M6 -38.5 l4.5 -2.25 v-15 l-4.5 2.25 z"/>
			<path fill="url(#med_grad)" d="
				M0 -27.5 l-4.5 -2.25 v-15 l4.5 2.25 z
				M-8 -31.5 l-4.5 -2.25 v-15 l4.5 2.25 z
				M-14 -34.5 l-4.5 -2.25 v-15 l4.5 2.25 z
				M8 -31.5 l-4.5 -2.25 v-15 l4.5 2.25 z
				M14 -34.5 l-4.5 -2.25 v-15 l4.5 2.25 z"/>
			<path fill="url(#dark_grad)" d="
				M-6 -24.5 l4.5 -2.25 v-15 l-4.5 2.25 z
				M-14 -28.5 l4.5 -2.25 v-15 l-4.5 2.25 z
				M-20 -31.5 l4.5 -2.25 v-15 l-4.5 2.25 z
				M0 -27.5 l4.5 -2.25 v-15 l-4.5 2.25 z
				M8 -31.5 l4.5 -2.25 v-15 l-4.5 2.25 z
				M14 -34.5 l4.5 -2.25 v-15 l-4.5 2.25 z"/>
			<path fill="url(#med_grad)" d="
				M0 -21.5 l-4.5 -2.25 v-15 l4.5 2.25 z
				M-6 -24.5 l-4.5 -2.25 v-15 l4.5 2.25 z
				M-14 -28.5 l-4.5 -2.25 v-15 l4.5 2.25 z
				M-20 -31.5 l-4.5 -2.25 v-15 l4.5 2.25 z
				M6 -24.5 l-4.5 -2.25 v-15 l4.5 2.25 z
				M14 -28.5 l-4.5 -2.25 v-15 l4.5 2.25 z
				M20 -31.5 l-4.5 -2.25 v-15 l4.5 2.25 z"/>
			<path fill="url(#dark_grad)" d="
				M0 -21.5 l4.5 -2.25 v-15 l-4.5 2.25 z
				M6 -24.5 l4.5 -2.25 v-15 l-4.5 2.25 z
				M14 -28.5 l4.5 -2.25 v-15 l-4.5 2.25 z
				M20 -31.5 l4.5 -2.25 v-15 l-4.5 2.25 z"/>
			<path fill="url(#lite_grad)" transform="translate(0 -15)" d="
				M0 -21.5 l4.5 -2.25 l-4.5 -2.25 l-4.5 2.25 z
				M6 -24.5 l4.5 -2.25 l-4.5 -2.25 l-4.5 2.25 z
				M14 -28.5 l4.5 -2.25 l-4.5 -2.25 l-4.5 2.25 z
				M20 -31.5 l4.5 -2.25 l-4.5 -2.25 l-4.5 2.25 z
				M-6 -24.5 l4.5 -2.25 l-4.5 -2.25 l-4.5 2.25 z
				M0 -27.5 l4.5 -2.25 l-4.5 -2.25 l-4.5 2.25 z
				M8 -31.5 l4.5 -2.25 l-4.5 -2.25 l-4.5 2.25 z
				M14 -34.5 l4.5 -2.25 l-4.5 -2.25 l-4.5 2.25 z
				M-14 -28.5 l4.5 -2.25 l-4.5 -2.25 l-4.5 2.25 z
				M-8 -31.5 l4.5 -2.25 l-4.5 -2.25 l-4.5 2.25 z
				M0 -35.5 l4.5 -2.25 l-4.5 -2.25 l-4.5 2.25 z
				M6 -38.5 l4.5 -2.25 l-4.5 -2.25 l-4.5 2.25 z
				M-20 -31.5 l4.5 -2.25 l-4.5 -2.25 l-4.5 2.25 z
				M-14 -34.5 l4.5 -2.25 l-4.5 -2.25 l-4.5 2.25 z
				M-6 -38.5 l4.5 -2.25 l-4.5 -2.25 l-4.5 2.25 z
				M0 -41.5 l4.5 -2.25 l-4.5 -2.25 l-4.5 2.25 z"/>
		</g>
	</defs>
	<rect width="100%" height="100%" fill="#6B839E"/>
	<use href="#base" x="74" y="154" alt-fill="#788FA8" fill="#91BBE6"/>
	<use href="#ped" x="74" y="166"/><!-- 154+12=166 -->
</svg>
