<?xml version="1.0" encoding="UTF-8"?>
<svg width="148" height="200" version="1.1" viewbox="0 0 148 200" xmlns="http://www.w3.org/2000/svg">
	<defs>
		<polygon id="base_square" points="-24,0 0,-12 24,0 0,12"/>
		<g id="base">
			<polygon points="-73,0 0,-37 73,0 0,37" fill="#46617E" stroke="none" transform="translate(0 8)"/>
			<use href="#base_square" x="-49"/>
			<use href="#base_square" x="-24.5" y="-12.25"/>
			<use href="#base_square" y="-24.5"/>
			<use href="#base_square" x="-24.5" y="12.25" />
			<use href="#base_square"/>
			<use href="#base_square" x="24.5"  y="-12.25"/>
			<use href="#base_square" y="24.5"/>
			<use href="#base_square" x="24.5"  y="12.25"/>
			<use href="#base_square" x="49"/>
		</g>
		<path id="1" d="M0 0 l-4.5 -2.25 v-15 l4.5 -2.25 l4.5 2.25 v15 z
			v-19.5 m0 4.5 l4.5 -2.25 m0 15 l-4.5 -2.25 l-4.5 2.25 m0 -15 l4.5 2.25"/>
		<g id="4">
			<use href="#1" y="-5.5"/>
			<use href="#1" x="-5.5" y="-2.75"/>
			<use href="#1" x="5.5" y="-2.75"/>
			<use href="#1"/>
		</g>
		<g id="16">
			<use href="#4" y="-14"/>
			<use href="#4" x="-14" y="-7"/>
			<use href="#4" x="14" y="-7"/>
			<use href="#4"/>
		</g>
		<g id="ped">
			<use href="#16" y="-21"/>
			<use href="#16"/>
		</g>
	</defs>
	<rect width="100%" height="100%" fill="#6B839E"/>
	<use href="#base" x="74" y="154" fill="#788FA8" alt-fill="#91BBE6" stroke="white"/>
	<use href="#ped" x="74" y="166" fill="none" stroke="white" stroke-width="0.75"/><!-- 154+12=166 -->
</svg>
