<?xml version="1.0" encoding="UTF-8"?>
<svg width="148" height="200" version="1.1" viewbox="0 0 148 200" xmlns="http://www.w3.org/2000/svg">
	<defs>
		<polygon id="base_square" points="-24,0 0,-12 24,0 0,12"/>
		<g id="base">
			<polygon points="-73,0 0,-37 73,0 0,37" fill="#46617E" stroke="none" transform="translate(0 8)"/>
			<use href="#base_square" x="-49"/>
			<use href="#base_square" x="-24.5" y="-12.25"/>
			<use href="#base_square" y="-24.5"/>
			<use href="#base_square" x="-24.5" y="12.25" />
			<use href="#base_square"/>
			<use href="#base_square" x="24.5"  y="-12.25"/>
			<use href="#base_square" y="24.5"/>
			<use href="#base_square" x="24.5"  y="12.25"/>
			<use href="#base_square" x="49"/>
		</g>
		<g id="face">
			<path id="top" d="M11.9769 -0.4651
			A3.3474 2.092125 0 0 0 17.5841 0.9450
			A8 5 0 1 1 15.1668 5.6408
			A3.3474 2.092125 0 0 0 9.2960 4.7428
			A12 7.5 0 0 1 -0.8879 7.4794
			A2.4061 1.5038125 0 0 0 -2.9005 9.9522
			A8 5 0 1 1 -9.4855 8.1967
			A2.4061 1.5038125 0 0 0 -8.0229 5.5773
			A12 7.5 0 0 1 -10.5936 3.5231
			A4.0945 2.5590625 0 0 0 -17.8617 3.5699
			A8 5 0 1 1 -18.5643 -1.6575
			A4.0945 2.5590625 0 0 0 -11.3855 -2.3692
			A12 7.5 0 0 1 11.9769 -0.4651 Z"/>
			<ellipse cx="0" cy="0" rx="3.5" ry="2.1875"/>
			<ellipse cx="-25" cy="1.3125" rx="2.33" ry="1.456"/>
			<ellipse cx="-9" cy="13.1875" rx="2.33" ry="1.456"/>
			<ellipse cx="23" cy="4.625" rx="2.33" ry="1.456"/>
		</g>
		<g id="warez_zone" fill="none" stroke="white" stroke-width="0.75">
			<use href="#face"/>
			<use href="#face" y="-40"/>
			<path d="
				M-33    1.3125 v-40   M-33    1.3125 v-40   M-30    5.2    v-40   M-25    6.3    v-40
				M-20    5.2    v-40   M-16.5  2.6    v-40   M-12.5  2.7    v-40   M-9     5      v-40
				M-7.5   7.3    v-40   M-11    8.4    v-40   M-14.5  9.8    v-40   M-17    13.875 v-40
				M-14    17.2   v-40   M-9     18.5   v-40   M-4     17.2   v-40   M-1     13.875 v-40
				M-3.5   9.4    v-40   M-.5    7.5    v-40   M4      7      v-40   M8.5    5.5    v-40
				M12     4.2    v-40   M15     5.5    v-40   M18     8.4    v-40   M23     9.5    v-40
				M28     8.4    v-40   M31     4.625  v-40   M28.5   1      v-40   M25    -0.2    v-40
				M21    -0.2    v-40   M17.5   1      v-40   M13.5   1.3    v-40   M11.5  -2.3    v-40
				M8     -5.3    v-40   M3.5   -7      v-40   M-1    -7.3    v-40   M-5.5  -6.7    v-40
				M-9.5  -4.8    v-40   M-12.5 -1.3    v-40   M-16.5 -1.3    v-40   M-19.5 -2.3    v-40
				M-23   -3.7    v-40   M-27   -3.7    v-40   M-30.5 -2.3    v-40"/>
		</g>
	</defs>
	<rect width="100%" height="100%" fill="#6B839E"/>
	<use href="#base" x="74" y="154" fill="#788FA8" alt-fill="#91BBE6" stroke="white"/>
	<use href="#warez_zone" x="74" y="152"/>
</svg>
